<?xml version="1.0" encoding="UTF-8"?><svg id="a" xmlns="http://www.w3.org/2000/svg" viewBox="0 0 700 700"><defs><style>.c{fill:#f292ad;}</style></defs><g id="b"><path class="c" d="M375.9,155.5c-1.4,1.6-5.4,3.3-6.2,5.8v16.4c9.1,1,18.2,2,27.2,3.3,0,0,14.1,2.1,27,4.9,14.3,3.1,173.4,48.1,221.5,192.9,7.1,21.4,15.3,55.4,12.8,99.8-203.8-.2-407.6-.3-611.3-.5-2.9-18-5.2-45.6.8-77.7,20.8-111,120.7-168.7,141.6-180.8,52-30,103.3-39.5,140.9-41.9v-16.4c-2.8-3.1-15.3-15.5-12.4-19.3.7-.9,2.5-1.7,3.6-2.2,10.2-3.9,44.1-3.7,54.7-.7,10.5,3,4.7,10.7-.4,16.4ZM151.2,276.5c-8.5,8.1-18.3,19.2-25,29-2.7,3.9-10.6,16.2-11.4,20.1-2.3,11.1,8.2,20.8,18.9,18,6.9-1.8,9.7-10.9,13.3-16.3,28.8-42.6,78.3-73.6,127.2-88.6,8.4-2.6,20.7-4.2,28.1-7.2,13.6-5.5,6.4-27.6-8.6-27.5-5.3,0-15.4,3.2-20.9,4.7-42.8,11.6-89.6,37.3-121.7,67.9ZM121.5,367.3c0-8.4-6.8-15.2-15.2-15.2s-15.2,6.8-15.2,15.2,6.8,15.2,15.2,15.2,15.2-6.8,15.2-15.2Z"/><path class="c" d="M689.1,519.8c-3.5,3.4-9.3,3.2-10.9,4.3s-5.2,14.7-6.7,17.6c-4.9,9.7-13.9,20.1-25.5,21.3H54.9c-14.1-.9-22.7-13.7-28-25.4-1.1-2.4-3.9-12.1-4.4-12.8-.8-1-7.7-1.8-10.4-3.9-7.4-5.8-6.1-21.8,3.5-24.9l668.1-.3c9.5,2.5,11.6,17.9,5.4,24.1Z"/></g></svg>