<?xml version="1.0" encoding="UTF-8"?><svg id="a" xmlns="http://www.w3.org/2000/svg" viewBox="0 0 700 700"><defs><style>.c{fill:#f292ad;}</style></defs><g id="b"><path class="c" d="M608.5,241.6c-19.5-107.2-133.1-180.5-237.1-185.3-3.9-20.9,4.3-13.9,10.2-19.7,4.6-4.5,4.4-14-2.1-17.1-5.1-2.5-54.9-2.5-60.1,0-11.1,5.3-3.4,21.2,7.8,20.8,1,4.5,1.5,11.8-2.3,14.8-4.1,3.2-36.7,6.3-46,8.6-87.3,21.7-171.5,84.7-188.4,177.9-.9,5.1-4.1,23.3.3,56.7.7,5.1,5,8.9,10.1,8.9h498.7c5.3,0,9.7-4.1,10.2-9.3,2.9-35.2,0-49.5-1.2-56.2ZM152.8,208.2c-.6,7.3-7,12.7-14.3,12.1-7.3-.6-12.7-7-12.1-14.3.6-7.3,7-12.7,14.3-12.1,7.3.6,12.7,7,12.1,14.3ZM319.7,102.7c-6.7,2.1-17.5,2.6-25,4.3-43.6,9.5-88.9,33-117,68.1-3.6,4.5-6.6,12.1-12.7,13.2-9.5,1.7-18-7.5-15.2-17,1-3.3,8.8-13.5,11.3-16.7,6.5-8,15.8-17,23.8-23.5,30.1-24.4,72.6-43.4,110.7-50.5,4.9-.9,13.9-3,18.5-2.6,13.1,1,17.8,20.7,5.6,24.6Z"/><path class="c" d="M691.3,324.2c9.9,8.7-43.9,24-47.5,25-41.4,10.8-85.2,13.5-127.5,18.8,7.6,15.8-7.4,30.4-12.3,46.4-7.5,24.7-9.4,49.9-.8,74.6,3.5,9.9,18.7,29.2,18.5,35.8s-21,59.9-25.3,70.7c-2.4,6.2-4.3,13.8-9,18.4-5.5,1.3-50.4-33.6-59.5-38.8-22.4-12.8-67.1-22.2-82.6-35-5.8-4.8-21.5-23.6-28.8-31.4-30-31.5-55.7-73.1-83.5-102.4-10.6-11.2-30.8-17-39.6-26-4.3-4.5-5.1-11.6-5.7-12.1-2.3-2-51.7-5-60.7-6.3-24.6-3.5-98.8-14.3-115.2-29.7-2.7-2.6-5-3.8-4.1-8.2h683.5ZM472.5,370.7h-213.2s0,5.4,0,5.4c42,16,68.6,47,114.3,56.6,65,13.7,62.7-21,99-62Z"/><path class="c" d="M612,682.4l-112.9-27.9c-3.4-.9-4.5-2.9-4.8-6.3-.9-11.2,17.4-39.3,22.5-51.5,10.4-25.3,19.8-51.2,24.1-78.4,23.2,6.1,50.6,8.4,71.1,20.5v143.5Z"/></g></svg>